<?xml version="1.0" encoding="UTF-8" standalone="no"?>
<!-- Created with Inkscape (http://www.inkscape.org/) -->

<svg
   width="11.977687mm"
   height="13.229166mm"
   viewBox="0 0 11.977687 13.229166"
   version="1.1"
   id="svg35"
   inkscape:version="1.1 (c68e22c387, 2021-05-23)"
   sodipodi:docname="icon-light.svg"
   xmlns:inkscape="http://www.inkscape.org/namespaces/inkscape"
   xmlns:sodipodi="http://sodipodi.sourceforge.net/DTD/sodipodi-0.dtd"
   xmlns="http://www.w3.org/2000/svg"
   xmlns:svg="http://www.w3.org/2000/svg">
  <g
     inkscape:label="Layer 1"
     inkscape:groupmode="layer"
     id="layer1"
     transform="translate(69.096413,-38.34956)">
    <g
       id="g4"
       transform="matrix(0.26458333,0,0,0.26458333,-69.722153,38.34956)">
      <path
         fill-rule="evenodd"
         clip-rule="evenodd"
         d="m 15.509,3.412 8.321,20.089 2.604,-1.071 -2.997,-7.236 0.325,-0.766 2.569,-1.035 0.731,0.31 3.192,7.882 2.616,-1.059 -1.709,-4.197 0.309,-0.725 2.57,-1.036 0.73,0.312 6.851,16.957 -2.826,8.962 L 24.202,46.843 12.787,39.76 6.112,32.61 6.103,31.747 8.096,29.708 8.99,29.698 13.124,33.282 15.652,32.023 5.409,11.447 5.67,10.668 8.148,9.432 l 0.824,0.293 7.846,15.857 2.605,-1.07 -8.05,-19.433 0.32,-0.771 3.008,-1.246 z M 22.133,12.046 17.675,1.283 14.731,0 9.534,2.154 8.324,5.073 9.017,6.747 7.959,6.371 3.373,8.657 2.365,11.666 9.934,26.872 6.894,26.905 3.275,30.607 3.309,33.738 10.972,41.949 23.947,50 41.092,42.899 44.615,31.724 36.947,12.744 34.071,11.519 29.897,13.2 29.238,11.567 26.362,10.342 Z m 4.769,-6.049 h 15.342 l 0.002,1.7 5.389,-3.117 -5.395,-3.109 10e-4,1.7 H 26.903 l 0.002,-1.7 -5.395,3.109 5.389,3.117 z"
         id="path2" />
    </g>
  </g>
</svg>
